<?xml version="1.0" standalone="no"?>
<!DOCTYPE svg PUBLIC "-//W3C//DTD SVG 20010904//EN"
 "http://www.w3.org/TR/2001/REC-SVG-20010904/DTD/svg10.dtd">
<svg version="1.0" xmlns="http://www.w3.org/2000/svg"
 width="700.000000pt" height="700.000000pt" viewBox="0 0 700.000000 700.000000"
 preserveAspectRatio="xMidYMid meet">
<metadata>
Created by potrace 1.14, written by Peter Selinger 2001-2017
</metadata>
<g transform="translate(0.000000,700.000000) scale(0.100000,-0.100000)"
fill="#000000" stroke="none">
<path d="M3417 6344 c-1 -1 -52 -4 -114 -8 -61 -4 -119 -8 -130 -10 -10 -2
-40 -7 -68 -10 -27 -4 -76 -11 -107 -17 -32 -5 -70 -12 -85 -15 -44 -7 -282
-74 -343 -96 -220 -78 -448 -191 -632 -314 -189 -126 -276 -196 -447 -364
-410 -402 -709 -980 -795 -1540 -8 -52 -17 -111 -20 -130 -34 -218 -22 -625
24 -840 5 -25 12 -56 14 -70 17 -98 86 -343 121 -425 6 -16 27 -66 45 -110
166 -401 447 -781 794 -1073 402 -338 883 -555 1411 -636 213 -32 537 -37 735
-11 19 3 53 7 75 10 39 4 105 14 135 20 586 117 1094 390 1503 809 132 135
347 405 347 435 0 5 4 11 9 13 11 4 113 181 165 288 106 215 204 510 240 720
3 19 8 44 10 56 2 12 7 45 11 74 4 29 8 62 11 73 21 111 20 548 -2 660 -2 12
-6 42 -9 67 -17 146 -91 450 -134 555 -5 11 -30 72 -56 135 -217 532 -616
1004 -1115 1320 -83 53 -322 178 -410 214 -209 87 -504 168 -699 191 -30 4
-61 8 -70 10 -54 10 -405 26 -414 19z"/>
</g>
</svg>
